<svg xmlns="http://www.w3.org/2000/svg" xmlns:xlink="http://www.w3.org/1999/xlink" width="180" height="114" viewBox="0 0 180 114"><defs><linearGradient id="a" x1="1.54" y1="92.82" x2="175.79" y2="92.82" gradientUnits="userSpaceOnUse"><stop offset="0" stop-color="#79589f"/><stop offset="1" stop-color="#009edb"/></linearGradient></defs><path d="M115.09,88.3Z" fill="#f6f0e2" stroke="#1e1e60" stroke-linecap="round" stroke-linejoin="round" stroke-width="2"/><path d="M115.76,88.39c-.16,0-.53,0-.67-.09C115,88.61,115.13,88.73,115.76,88.39Z" fill="#f6f0e2" stroke="#1e1e60" stroke-linecap="round" stroke-linejoin="round" stroke-width="2"/><path d="M88.64,59.42s0,0,0,0,0-.26-.06-.34C88.61,59.17,88.63,59.3,88.64,59.42Z" fill="#f6f0e2" stroke="#1e1e60" stroke-linecap="round" stroke-linejoin="round" stroke-width="2"/><path d="M98.52,106.7a7.8,7.8,0,0,0-.18-2.84c-.55-1.49-3-2.66-4-3.65a22.52,22.52,0,0,1-3.54-4.71A24,24,0,0,1,89,92.77c-1-2.07,0-.84.16-2.06s-.14-2.23.33-3.47,1.81-2.22,2.24-3.61c.38-1.22.09-2.77-1.17-3.18-.71-.23-1.48.3-2.19.18a7.39,7.39,0,0,1-2.88-1.48c-1.08-.82-1.48-2.16-2.63-2.94-1-.65-1.65-.26-2.68-.57s-1.74-1.64-2.6-2c-1.3-.63-2,.27-3.41.09-1.17-.16-2.95-1.45-4-1.94a7.39,7.39,0,0,1-4.46-4.34C65,65.47,63.85,64.57,62.54,63s-1.73-3-3.77-3.45c-.24,0,.5,1.71.58,1.85A40.55,40.55,0,0,0,62,65.19c1.3,1.85.75,2.2-.57.41-1.5-2-3.25-4.08-4.55-6.24-.5-.82-.4-1.35-1.22-2.13s-1.81-1.11-2.6-1.83c-2.85-2.56-3.37-6-3.05-9.63a12.46,12.46,0,0,0,.35-3.29A4.57,4.57,0,0,0,49,40.05c-.22-.36-.79-1.25-.82-1.3a11,11,0,0,0-2.18-3c-.59-.5-2.11-1.69-3.55-2.69A61.27,61.27,0,0,1,67,14.66a3.39,3.39,0,0,0,.6,1.44c.79,1.18,1.55,1.09,3.11,1.42-.17,1.8-2.28,1.81-3.71,1.62-1.7-.24-3.49-.8-5,.69.82.49,3.05,2.4,2.76.41a26.5,26.5,0,0,1,4.8.06c.64.08,2.79.8,3.37.47.24-.14.5-1.34.76-1.71a13.4,13.4,0,0,0-1.4-.18c1.06-1.36,2.11-.3,3.46.33-1.48.9-.6,3.05.85,1.3,1.19-1.44-.3-2.49-1.81-3.33,1.53-1.9,2.47-2.07,3.9.08.24-1.33,1.31-.8,2.43-.7v-.33c-.5,0-1-.27-1.51-.22,1.14-1.82.41-2.24,2-2.83,1.3-.47,5,0,5.46-1.25-2.59.5-5.72.62-8.06,1.8-1,.51-2.21,2.11-3.22,1.07s.74-2.79,1.65-3.31H77.3a60.33,60.33,0,0,1,21-.76c-.94.49-.24.82-.92,1.33a25.78,25.78,0,0,1-5.19,2.37c2,0,6.77,1.85,7.69-.92L98,13.21a16.9,16.9,0,0,1,3.92-1.89,60.88,60.88,0,0,1,32.3,17.83H134c-2.37.07-4,.08-5.93,1.39a7.33,7.33,0,0,1-2.27,1.51c-.87.25-1.81,0-2.68.33-3.13,1.06-2.63,7.76-6.76,6.75-1.93-.48-3.3-2.77-4.27-4.26-.86-1.31-2.43-2.4-1.37-4-.48.13-1,0-1.47.08.66-1.46,2.88-1.33,3.24-2.07.92-1.86-2.52-2-3.5-2.31,1.18-1.25,1.77.42,2.93.14s-.59-1.74-1.25-1.91c-.24-.06-4.17,1.09-1.9-.95l-8.42-5.37c-.47,2,3.74,3.13,5.11,3.83-.21.82-1.49,2-2.47,1.66s-.55-1.85-1.94-1.7c-1,2.31,2.1,1.64,2.39,3.05.33,1.61-1.17.93-1.74.9-.14,0-1.21-1.11-1.27-.27-.07,1,1.71.61,1.84,1.61-2.08.09-3.14-.66-4.83-1.78-2-1.31-3-1.19-5.39-1.19a10.5,10.5,0,0,0,2.33-1,10.63,10.63,0,0,0,1.75-1.83c.37-1.24,0-1.15-1.21-2s-2.33-2-3.61-2.27c-4.62-.92-1.42,4.18-4.94,4.88h0c-.81,0-2.33-.23-2.86.2-.37.31-.4,1.52-.81,2-.74.78-1.83.94-2.71,1.5A12,12,0,0,0,76.73,29c-1.85,3.54,4.18,4.64,6.47,5.68,1,.47,4,1.11,4.61,1.89.75,1-.65,2,.92,2.77a2,2,0,0,0,2-.2c.7-.8-.29-1-.46-1.89-.32-1.77.21-1.07,1.1-1.72,1.81-1.34,1.4-1.42.75-3.54-.3-1-1.44-3.76-.44-4.49,1.31-.95,4.1.52,5.1.64,1.17.14,1.83,1.76,2.46,2.42.43.44,1.18,1.37,1.92,1.27,1.17-.16.68-1.18,1.36-1.66,1.82-1.26,2.3.46,3,2.17a7.46,7.46,0,0,0,2.54,3.25c.57.48,3,2.2,2.81,3.26-.16.71-3,1.79-3.74,2-2.77.88-8-1.43-8.51,3,1.08-.4,4.13-2.89,5-1.71.42.54-.33,1.32-.16,1.85.53,1.59,1.76,1,3,.78l-.28.14c1.76-.9,1.58-.71,2.39-2.18a10.65,10.65,0,0,1,1-2c1.28-1.17,1.48-.36,2.27.55.21.24,2.17,3.06,1.47,2.92a8.18,8.18,0,0,0-6.36.85,17.49,17.49,0,0,1-3.43,2.17c-.31.12-2.62.34-2.35-.06.4-.57,1.77-1,2.32-1.57-1.51-.62-2.76.74-3.94,1.54-1.25.59-1.54,1.7-2.61,2.66-.46.43-1.34.5-1.8,1.05s-.5,1.39-.92,1.9-1,.14-1.35.68c-.41.71.36,1.36.19,1.87-.3.92-2.06,1.71-2.74,2.37l.27-.27a16,16,0,0,0-2.06,2.06c.24,1.16,1,3.92.8,4.56-.71,2.1-2.07-1.14-2.63-2-1.9-2.87-5.71-.95-8.31-.71-3.33.3-6.59,4.62-4.53,8.12a4,4,0,0,0,4.54,1.94c1.69-.34,2.2-2.71,3.79-2.75,2.93-.08.06,2.87-.19,4s.37,1.09,1.4,1.34c.76.18,1.84-.33,2.5.11.41.27.39,1.77,1,1.3a2.73,2.73,0,0,0,.29,4c1.28.88,2.79.06,4.13.4,2.53.65,1.32-.19,3.54-1.53,1.5-.91,1.75.17,2.77.17.7,0,1.14-1,2.31-.71,1,.24,1.33,1,2.46,1.14.47.07,1-.17,1.39-.12,2.1.23,3.71,1.57,5.36,2.79,1.36,1,2.27.79,3.86,1.25,1.16.33,3.31,2,3.2,3.49,0,.26-1,1.59-1.21,2.19.3.21,2.37-.25,3-.3-.2.23-1.61,1.22-1.61.7,0,.27,1,.82,1.24,1,.74-2.38,2-.85,3.4-.26a28.81,28.81,0,0,0,4.07.85c1.12.26,3.59,1,4.42,1.93,1,1.1.31,2.89-.43,4-1,1.43-2.42,2-3,3.67-.47,1.34-.11,2.69-.39,4.18-.36,2-.66,1.3-2,2.53l-.13.12H149A68.87,68.87,0,1,0,31,106.7Zm46.61-53.37c.12-.24.38-.32.49-.52.23-.42.18-.7.46-1.06s.72-.49,1.06-.79a1.35,1.35,0,0,0,.27-.36,59,59,0,0,1,2.41,8.78.15.15,0,0,1,0,.07,5,5,0,0,1-1.31.27,2.59,2.59,0,0,1-1.72-.87,8.3,8.3,0,0,1-1.47-1.61c-.39-.62-.15-1.25-.12-2S144.88,53.86,145.13,53.33Zm-2.94,18.79c.27-.56.88-.75,1.13-1.21.54-1,.42-1.63,1.07-2.47s1.66-1.12,2.44-1.83.8-1.32,1.32-2.27a8.5,8.5,0,0,1,2.12-2.45,61,61,0,0,1-1.36,24.93,7.92,7.92,0,0,1-3-1.91,19,19,0,0,1-3.42-3.74c-.9-1.42-.34-2.88-.28-4.5C142.28,75.3,141.61,73.35,142.19,72.12Z" fill="#f6f0e2" stroke="#1e1e60" stroke-linecap="round" stroke-linejoin="round" stroke-width="2"/><rect x="5.75" y="81.99" width="174.25" height="32.01" fill="#1e1e60"/><rect x="1.54" y="76.82" width="174.25" height="32.01" fill="url(#a)"/><rect x="1.54" y="76.82" width="173.25" height="32.01" fill="none" stroke="#1e1e60" stroke-miterlimit="10" stroke-width="2"/><polyline points="16 85.82 8.08 93.73 16 101.53" fill="none" stroke="#f6f0e2" stroke-linecap="round" stroke-linejoin="round" stroke-width="2"/><polyline points="158.97 101.53 166.88 93.61 158.97 85.82" fill="none" stroke="#f6f0e2" stroke-linecap="round" stroke-linejoin="round" stroke-width="2"/></svg>